<svg width="80" height="80" viewBox="0 0 80 80" fill="none" xmlns="http://www.w3.org/2000/svg">
<path d="M69.0625 32.8125V48.4375" stroke="#2660F5" stroke-width="4" stroke-miterlimit="10" stroke-linecap="round" stroke-linejoin="round"/>
<path d="M61.25 40.625H76.875" stroke="#2660F5" stroke-width="4" stroke-miterlimit="10" stroke-linecap="round" stroke-linejoin="round"/>
<path d="M70.5162 60.7073C63.8819 70.4655 52.6895 76.875 40 76.875C19.6345 76.875 3.125 60.3655 3.125 40C3.125 19.6345 19.6345 3.12501 40 3.12501C52.9212 3.12501 64.2902 9.77079 70.8752 19.8306" stroke="#2660F5" stroke-width="4" stroke-miterlimit="10" stroke-linecap="round" stroke-linejoin="round"/>
<path d="M23.2812 51.7188V28.4375L17.5 32.6563" stroke="#2660F5" stroke-width="4" stroke-miterlimit="10" stroke-linecap="round" stroke-linejoin="round"/>
<path d="M35.7812 45.4688C35.7812 42.0171 38.5795 39.2188 42.0312 39.2188C45.483 39.2188 48.2812 42.0171 48.2812 45.4688C48.2812 48.9205 45.483 51.7188 42.0312 51.7188C38.5795 51.7188 35.7812 48.9205 35.7812 45.4688Z" stroke="#2660F5" stroke-width="4" stroke-miterlimit="10" stroke-linecap="round" stroke-linejoin="round"/>
<path d="M36.5625 33.75C36.5625 30.7297 39.0109 28.2813 42.0312 28.2813C45.0516 28.2813 47.5 30.7297 47.5 33.75C47.5 36.7703 45.0516 39.2188 42.0312 39.2188C39.0109 39.2188 36.5625 36.7703 36.5625 33.75Z" stroke="#2660F5" stroke-width="4" stroke-miterlimit="10" stroke-linecap="round" stroke-linejoin="round"/>
</svg>
