<svg width="32" height="32" viewBox="0 0 32 32" fill="none" xmlns="http://www.w3.org/2000/svg">
<g clip-path="url(#clip0_30_3454)">
<path d="M21.9974 0C20.2914 0.117999 18.2974 1.20999 17.1354 2.63198C16.0754 3.92198 15.2034 5.83797 15.5434 7.69995C17.4074 7.75795 19.3334 6.63996 20.4494 5.19397C21.4934 3.84798 22.2834 1.94399 21.9974 0Z" fill="black"/>
<path d="M28.7391 10.7359C27.1011 8.68192 24.7992 7.48993 22.6252 7.48993C19.7552 7.48993 18.5412 8.86392 16.5472 8.86392C14.4912 8.86392 12.9292 7.49393 10.4472 7.49393C8.00925 7.49393 5.41326 8.98392 3.76727 11.5319C1.45329 15.1199 1.84928 21.8658 5.59926 27.6118C6.94125 29.6678 8.73324 31.9798 11.0772 31.9998C13.1632 32.0198 13.7512 30.6618 16.5772 30.6478C19.4032 30.6318 19.9392 32.0178 22.0212 31.9958C24.3672 31.9778 26.2571 29.4158 27.5991 27.3598C28.5611 25.8858 28.9191 25.1438 29.6651 23.4798C24.2392 21.4138 23.3692 13.6979 28.7391 10.7359Z" fill="black"/>
</g>
<defs>
<clipPath id="clip0_30_3454">
<rect width="32" height="32" fill="white"/>
</clipPath>
</defs>
</svg>
