<svg width="80" height="80" viewBox="0 0 80 80" fill="none" xmlns="http://www.w3.org/2000/svg">
<g clip-path="url(#clip0_45_7452)">
<path d="M40.5326 48.7585C40.4522 48.8643 40.3515 48.953 40.2364 49.0195L13.0588 64.7105C12.5805 64.9866 11.9689 64.8227 11.6928 64.3444L5.74752 54.0469C-0.333496 43.5143 3.27529 30.0461 13.8079 23.9651L20.5417 20.0773C31.0743 13.9963 44.5425 17.6051 50.6235 28.1377L52.7002 31.7346C52.9016 32.0834 52.874 32.519 52.6303 32.8397L40.5326 48.7585Z" stroke="#2660F5" stroke-width="4" stroke-miterlimit="10" stroke-linecap="round"/>
<path d="M34.6324 52.256L26.1599 37.5812C22.6093 31.4315 21.8994 24.5665 23.7352 18.5591" stroke="#2660F5" stroke-width="4" stroke-miterlimit="10" stroke-linecap="round"/>
<path d="M53.0337 32.3104L70.9487 29.1089C73.1982 28.7803 75.4205 29.857 76.5571 31.8256C77.4458 33.3648 77.5435 35.2364 76.8201 36.8597C71.8895 47.9239 59.7058 53.8276 47.9669 50.8408L40.4122 48.9187" stroke="#2660F5" stroke-width="4" stroke-miterlimit="10" stroke-linecap="round"/>
<path d="M20.2814 50.0849L8.53106 56.869C8.05277 57.1451 7.8889 57.7567 8.16504 58.235L11.6924 64.3445C11.9685 64.8228 12.5801 64.9867 13.0584 64.7106L24.8088 57.9265C25.2871 57.6503 25.4509 57.0387 25.1748 56.5604L21.6475 50.4509C21.3713 49.9726 20.7597 49.8088 20.2814 50.0849Z" stroke="#2660F5" stroke-width="4" stroke-miterlimit="10" stroke-linecap="round"/>
<path d="M15.2873 26.4434L12.439 21.5099" stroke="#2660F5" stroke-width="4" stroke-miterlimit="10" stroke-linecap="round"/>
</g>
<defs>
<clipPath id="clip0_45_7452">
<rect width="80" height="80" fill="white"/>
</clipPath>
</defs>
</svg>
