<svg width="80" height="80" viewBox="0 0 80 80" fill="none" xmlns="http://www.w3.org/2000/svg">
<path d="M64.6733 20.7569C63.5461 12.4812 56.4653 6 47.9004 6C38.5511 6 30.971 13.7212 30.971 23.0705C30.971 29.5178 34.5755 35.1229 39.8787 37.9826C32.9249 46.674 19.2315 46.4089 12.6378 37.4676C8.56623 41.2866 6 46.0805 6 51.2863C6 63.7534 20.0373 74 37.1784 74C54.3195 74 68.2158 63.7534 68.2158 51.2863C68.2158 45.148 64.8468 39.5824 59.3786 35.5123C60.8232 34.1791 62.0351 32.599 62.9451 30.8369" stroke="#2660F5" stroke-width="4" stroke-miterlimit="10" stroke-linecap="round" stroke-linejoin="round"/>
<path d="M63.9197 30.9709C69.4171 30.9709 74.0001 27.3531 74.0001 21.7949C73.78 21.7949 65.6402 20.664 65.6563 20.6663C62.7066 20.6663 60.3154 23.0573 60.3154 26.0069V27.3667C60.3154 29.3573 61.9291 30.9709 63.9197 30.9709Z" stroke="#2660F5" stroke-width="4" stroke-miterlimit="10" stroke-linecap="round" stroke-linejoin="round"/>
<path d="M42.6931 48.6853C38.4797 52.7714 30.9526 53.8828 25.6382 54.048C26.7117 57.8419 31.5258 62.1595 38.8715 62.1595C46.9747 62.1595 53.1804 58.5834 53.5437 54.259C53.7803 51.4413 53.0848 48.9508 50.5187 47.5551C47.9609 46.1639 45.0159 46.4326 42.6931 48.6853Z" stroke="#2660F5" stroke-width="4" stroke-miterlimit="10" stroke-linecap="round" stroke-linejoin="round"/>
<circle cx="51.7375" cy="17.4274" r="2.70871" fill="#2660F5"/>
</svg>
