<svg width="32" height="32" viewBox="0 0 32 32" fill="none" xmlns="http://www.w3.org/2000/svg">
<path d="M31 16C31 23.4871 25.5145 29.6928 18.3438 30.8178V20.3359H21.8389L22.5039 16H18.3438V13.1863C18.3438 11.9998 18.925 10.8438 20.7883 10.8438H22.6797V7.15234C22.6797 7.15234 20.9629 6.85938 19.3217 6.85938C15.8957 6.85938 13.6562 8.93594 13.6562 12.6953V16H9.84766V20.3359H13.6562V30.8178C6.48555 29.6928 1 23.4871 1 16C1 7.71602 7.71602 1 16 1C24.284 1 31 7.71602 31 16Z" fill="#1877F2"/>
<path d="M21.8389 20.3359L22.5039 16H18.3438V13.1863C18.3438 12 18.9249 10.8438 20.7882 10.8438H22.6797V7.15234C22.6797 7.15234 20.9631 6.85938 19.322 6.85938C15.8956 6.85938 13.6562 8.93594 13.6562 12.6953V16H9.84766V20.3359H13.6562V30.8177C14.42 30.9375 15.2027 31 16 31C16.7973 31 17.58 30.9375 18.3438 30.8177V20.3359H21.8389Z" fill="white"/>
</svg>
