<svg width="264" height="40" viewBox="0 0 264 40" fill="none" xmlns="http://www.w3.org/2000/svg">
<path d="M21.3884 9.5124C21.3884 6.70248 18.719 6 16.6116 6V6.42149C17.876 6.42149 18.8595 6.84298 18.8595 7.82645C18.8595 8.38843 18.438 9.2314 17.1736 9.2314C16.1901 9.2314 14.0826 8.66942 12.5372 8.10744C10.7107 7.40496 9.02479 6.84298 7.61983 6.84298C4.80992 6.84298 2.84298 8.95041 2.84298 11.3388C2.84298 13.4463 4.38843 14.1488 4.95041 14.4298L5.09091 14.1488C4.80992 13.8678 4.38843 13.5868 4.38843 12.7438C4.38843 12.1818 4.95041 11.1983 6.35537 11.1983C7.61983 11.1983 9.30579 11.7603 11.5537 12.4628C13.5207 13.0248 15.6281 13.4463 16.7521 13.5868V17.9421L14.6446 19.7686V19.9091L16.7521 21.7355V27.7769C15.6281 28.4793 14.3636 28.6198 13.2397 28.6198C11.1322 28.6198 9.30578 28.0578 7.76033 26.3719L13.5207 23.562V13.8678L6.49587 16.9587C7.05785 15.1322 8.60331 13.8678 10.1488 13.0248L10.0083 12.6033C5.79339 13.7273 2 17.6612 2 22.438C2 28.0579 6.63636 32.2727 11.8347 32.2727C17.4545 32.2727 21.1074 27.7769 21.1074 23.1405H20.8264C19.9835 24.9669 18.719 26.6529 17.1736 27.4959V21.7355L19.4215 19.9091V19.7686L17.1736 17.9421V13.5868C19.281 13.5868 21.3884 12.1818 21.3884 9.5124ZM9.16529 24.9669L7.47934 25.8099C6.49587 24.5455 5.93388 22.8595 5.93388 20.4711C5.93388 19.4876 5.93388 18.3636 6.21488 17.5207L9.16529 16.2562V24.9669ZM24.0578 28.1983L22.2314 29.6033L22.5124 29.8843L23.3554 29.1818L26.4463 31.9917L30.6612 29.1818L30.5207 28.9008L29.3967 29.6033L27.9917 28.1983V18.6446L29.1157 17.8017L31.5041 19.7686V28.3388C31.5041 33.6777 30.3802 34.5207 27.9917 35.3636V35.7851C31.9256 35.9256 35.5785 34.6612 35.5785 27.7769V18.5041L36.843 17.5207L36.562 17.2397L35.438 18.0826L31.9256 15.1322L27.9917 18.0826V6.56198H27.7107L22.7934 9.93388V10.2149C23.3554 10.4959 24.1983 10.7769 24.1983 12.3223L24.0578 28.1983ZM49.7686 26.6529L46.2562 29.3223L42.7438 26.5124V24.8264L49.3471 20.3306V20.1901L45.9752 15.1322L38.6694 19.0661V28.3388L37.2645 29.4628L37.5455 29.7438L38.8099 28.7603L43.5868 32.2727L49.9091 27.2149L49.7686 26.6529ZM42.7438 24.2645V17.3802L43.0248 17.2397L46.1157 22.157L42.7438 24.2645ZM76.6033 8.24793C76.6033 7.82645 76.4628 7.40496 76.3223 6.98347H76.0413C75.6198 8.10744 75.0578 8.66942 73.6529 8.66942C72.3884 8.66942 71.5454 7.96694 70.9835 7.40496L66.9091 12.0413L67.1901 12.3223L68.595 11.0579C69.438 11.7603 70.1405 12.3223 72.1074 12.4628V24.124L63.8182 9.93388C63.1157 8.80992 62.1322 7.26446 60.1653 7.26446C57.9174 7.26446 55.9504 9.2314 56.2314 12.3223H56.6529C56.7934 11.4793 57.2149 10.4959 58.1983 10.4959C58.9008 10.4959 59.6033 11.1983 60.0248 11.9008V16.5372C57.4959 16.5372 55.8099 17.6612 55.8099 19.7686C55.8099 20.8926 56.3719 22.5785 58.0578 23V22.719C57.7769 22.438 57.6364 22.157 57.6364 21.7355C57.6364 21.0331 58.1983 20.4711 59.1818 20.4711H59.8843V26.3719C56.9339 26.3719 54.5455 28.0579 54.5455 30.8678C54.5455 33.5372 56.7934 34.8017 59.3223 34.6612V34.3802C57.7769 34.2397 57.0744 33.5372 57.0744 32.5537C57.0744 31.2893 57.9174 30.7273 59.0413 30.7273C60.1653 30.7273 61.1488 31.4298 61.8512 32.2727L65.9256 27.7769L65.6446 27.4959L64.6612 28.6198C63.1157 27.2149 62.2727 26.7934 60.4463 26.5124V12.4628L71.6859 32.1322H72.5289V12.4628C74.6364 12.3223 76.6033 10.6364 76.6033 8.24793ZM86.8595 26.6529L83.3471 29.3223L79.8347 26.5124V24.8264L86.438 20.3306V20.1901L83.0661 15.1322L75.7603 19.0661V28.3388L74.3554 29.4628L74.6364 29.7438L75.9008 28.7603L80.6777 32.2727L87 27.2149L86.8595 26.6529ZM79.8347 24.2645V17.3802L80.1157 17.2397L83.2066 22.157L79.8347 24.2645ZM109.76 16.6777L108.777 17.3802L106.107 15.1322L103.017 17.9421L104.281 19.2066V29.7438L100.909 27.6364V18.9256L102.033 18.2231L98.8017 15.1322L95.7107 17.9421L96.9752 19.2066V29.3223L96.5537 29.6033L93.6033 27.4959V19.0661C93.6033 17.0992 92.6198 16.5372 91.4959 15.8347C90.5124 15.1322 89.9504 14.7107 89.9504 13.7273C89.9504 12.8843 90.7934 12.4628 91.2149 12.1818V11.9008C90.0909 11.9008 87.1405 13.0248 87.1405 15.6942C87.1405 17.0992 87.843 17.6612 88.5454 18.3636C89.2479 19.0661 89.9504 19.6281 89.9504 20.8926V29.0413L88.405 30.1653L88.6859 30.4463L90.0909 29.3223L93.3223 32.1322L96.8347 29.7438L100.769 32.1322L108.215 27.7769V18.3636L110.041 16.9587L109.76 16.6777ZM135.893 8.95041L134.488 10.2149L131.397 7.40496L126.76 10.7769V7.68595H126.339L126.479 30.4463C126.058 30.4463 124.793 30.1653 123.81 29.8843L123.529 10.9174C123.529 9.5124 122.545 7.54545 120.017 7.54545C117.488 7.54545 115.802 9.5124 115.802 11.4793H116.223C116.364 10.6364 116.785 9.93388 117.628 9.93388C118.471 9.93388 119.174 10.4959 119.174 12.3223V17.8017C116.645 17.9421 115.099 19.3471 115.099 21.1736C115.099 22.2975 115.661 23.9835 117.347 23.9835V23.7025C116.785 23.4215 116.645 23 116.645 22.719C116.645 21.876 117.347 21.595 118.471 21.595H119.033V30.3058C116.926 31.0083 116.083 32.5537 116.083 34.2397C116.083 36.6281 117.909 38.314 120.719 38.314C122.686 38.314 124.372 38.0331 126.058 37.6116C127.463 37.3306 129.289 36.9091 130.132 36.9091C131.256 36.9091 131.678 37.4711 131.678 38.1735C131.678 39.157 131.256 39.5785 130.694 39.719V40C132.942 39.5785 134.347 38.1735 134.347 36.0661C134.347 33.9587 132.24 32.6942 129.992 32.6942C128.868 32.6942 126.479 33.1157 124.793 33.3967C122.826 33.8182 120.859 34.0992 120.298 34.0992C119.314 34.0992 118.19 33.6777 118.19 32.2727C118.19 31.1488 119.174 30.1653 121.562 30.1653C122.826 30.1653 124.372 30.3058 125.917 30.7273C127.603 31.1488 129.149 31.5702 130.554 31.5702C132.661 31.5702 134.488 30.8678 134.488 27.9174V10.6364L136.174 9.2314L135.893 8.95041ZM130.132 17.5207C129.711 17.9421 129.149 18.3636 128.446 18.3636C127.744 18.3636 127.041 17.9421 126.76 17.5207V11.3388L128.165 10.3554L130.132 12.1818V17.5207ZM130.132 21.7355C129.851 21.4545 129.149 21.0331 128.446 21.0331C127.744 21.0331 127.041 21.4545 126.76 21.7355V18.0826C127.041 18.3636 127.744 18.7851 128.446 18.7851C129.149 18.7851 129.851 18.3636 130.132 18.0826V21.7355ZM130.132 28.3388C130.132 29.4628 129.43 30.5868 127.884 30.5868H126.76V22.2975C127.041 22.0165 127.744 21.595 128.446 21.595C129.149 21.595 129.711 22.0165 130.132 22.2975V28.3388ZM149.38 18.3636L144.884 15.1322L138 19.0661V28.1983L136.595 29.3223L136.736 29.6033L137.859 28.7603L142.355 32.1322L149.38 27.9174V18.3636ZM141.793 27.2149V17.0992L145.306 19.6281V29.6033L141.793 27.2149ZM162.727 15.4132H162.446C162.025 15.6942 161.603 15.9752 161.182 15.9752C160.62 15.9752 159.917 15.6942 159.636 15.2727H159.355L156.967 17.9421L154.579 15.2727L150.364 18.0826L150.504 18.3636L151.628 17.6612L153.033 19.2066V28.0579L151.207 29.4628L151.488 29.7438L152.331 29.0413L155.702 31.8512L160.058 28.9008L159.917 28.6198L158.653 29.3223L156.967 27.9174V18.0826C157.669 18.7851 158.512 19.4876 159.496 19.4876C161.463 19.6281 162.587 17.6612 162.727 15.4132ZM179.587 28.9008L174.81 32.1322L168.347 22.2975L172.983 15.1322H173.264C173.826 15.6942 174.669 16.2562 175.653 16.2562C176.636 16.2562 177.339 15.6942 177.76 15.1322H178.041C177.901 17.9421 175.934 19.6281 174.529 19.6281C173.124 19.6281 172.421 18.9256 171.579 18.5041L171.157 19.2066L178.182 29.6033L179.587 28.7603V28.9008ZM164.132 28.1983L162.306 29.6033L162.587 29.8843L163.43 29.1818L166.521 31.9917L170.736 29.1818L170.455 28.9008L169.331 29.6033L167.926 28.1983V6.56198H167.785L162.727 9.93388V10.2149C163.289 10.4959 164.132 10.6364 164.132 12.3223V28.1983ZM202.909 9.5124C202.909 6.70248 200.24 6 198.132 6V6.42149C199.397 6.42149 200.38 6.84298 200.38 7.82645C200.38 8.38843 199.959 9.2314 198.694 9.2314C197.711 9.2314 195.603 8.66942 194.058 8.10744C192.231 7.54545 190.545 6.98347 189.14 6.98347C186.331 6.98347 184.364 9.09091 184.364 11.4793C184.364 13.5868 185.909 14.2893 186.471 14.5702L186.612 14.2893C186.19 14.0083 185.769 13.7273 185.769 12.8843C185.769 12.3223 186.331 11.3388 187.736 11.3388C189 11.3388 190.686 11.9008 192.934 12.6033C194.901 13.1653 197.008 13.5868 198.132 13.7273V18.0826L196.025 19.9091V20.0496L198.132 21.876V27.9174C197.008 28.6198 195.744 28.7603 194.62 28.7603C192.512 28.7603 190.686 28.1983 189.14 26.5124L194.901 23.7025V13.8678L187.876 16.9587C188.579 15.1322 190.124 13.8678 191.529 12.8843L191.388 12.6033C187.174 13.7273 183.38 17.5207 183.38 22.2975C183.38 27.9174 188.017 32.1322 193.215 32.1322C198.835 32.1322 202.488 27.6364 202.488 23H202.207C201.364 24.8264 200.099 26.5124 198.554 27.3554V21.595L200.802 19.7686V19.6281L198.694 17.8017V13.5868C200.802 13.5868 202.909 12.1818 202.909 9.5124ZM190.686 24.9669L189 25.8099C188.017 24.5455 187.455 22.8595 187.455 20.4711C187.455 19.4876 187.595 18.3636 187.876 17.5207L190.826 16.2562L190.686 24.9669ZM207.826 8.10744H207.686L204.876 10.4959V10.6364L207.264 13.3058H207.545L210.355 10.9174V10.7769L207.826 8.10744ZM212.041 28.9008L210.917 29.6033L209.512 28.1983V18.5041L210.917 17.5207L210.636 17.2397L209.653 18.0826L207.124 15.1322L203.05 17.9421L203.331 18.3636L204.314 17.6612L205.578 19.2066V28.3388L203.752 29.7438L203.893 30.0248L204.876 29.3223L207.967 32.1322L212.182 29.3223L212.041 28.9008ZM235.504 28.7603L234.521 29.4628L232.975 28.0579V18.5041L234.38 17.3802L234.099 17.0992L232.975 18.0826L229.744 15.1322L225.529 18.0826L222.298 15.1322L218.364 18.0826L215.835 15.1322L211.76 17.9421L211.901 18.3636L212.884 17.6612L214.289 19.2066V28.3388L213.165 29.4628L216.397 32.1322L219.488 29.3223L218.223 28.0579V18.5041L219.488 17.6612L221.595 19.6281V28.0579L220.471 29.1818L223.702 31.8512L226.793 29.0413L225.529 27.7769V18.5041L226.653 17.8017L228.901 19.7686V28.1983L227.917 29.1818L231.149 32.1322L235.504 29.1818V28.7603ZM247.727 26.6529L244.215 29.3223L240.702 26.5124V24.8264L247.306 20.3306V20.1901L243.934 15.1322L236.628 19.0661V28.6198L241.545 32.1322L247.868 27.0744L247.727 26.6529ZM240.702 24.2645V17.3802L240.983 17.2397L244.074 22.157L240.702 24.2645ZM260.512 23L257.843 20.8926C259.669 19.3471 260.372 17.2397 260.372 15.8347V14.9917H260.091C259.81 15.6942 259.248 16.3967 258.124 16.3967C257 16.3967 256.298 15.8347 255.595 14.9917L249.273 18.5041V23.562L251.661 25.3884C249.273 27.4959 248.851 28.9008 248.851 30.0248C248.851 31.4298 249.554 32.4132 250.678 32.8347L250.818 32.5537C250.537 32.2727 250.256 32.1322 250.256 31.4298C250.256 31.0083 250.818 30.3058 251.942 30.3058C253.347 30.3058 254.19 31.2893 254.612 31.7107L260.653 28.0579V23H260.512ZM258.967 18.7851C257.983 20.4711 255.876 22.157 254.612 23L253.066 21.7355V16.8182C253.628 18.2231 255.174 19.3471 256.719 19.3471C257.702 19.3471 258.264 19.2066 258.967 18.7851ZM256.578 30.0248C255.876 28.4793 254.19 27.3554 252.504 27.3554C252.083 27.3554 250.959 27.3554 249.835 28.0579C250.537 26.9339 252.364 24.9669 254.752 23.562L256.438 24.9669L256.578 30.0248Z" fill="black"/>
</svg>
