<svg width="175" height="40" viewBox="0 0 175 40" fill="none" xmlns="http://www.w3.org/2000/svg">
<path d="M20.3849 34.0015H25.6724V18.3294C25.6724 12.5041 22.2138 9.87325 17.1502 9.87325C15.4209 9.87325 13.9155 10.2115 12.6963 10.8755C10.121 12.3537 9.57361 15.4731 9.57361 15.4731H9.2999V14.8718V5H4V34.014H9.28746V20.2211C9.28746 17.3648 11.7881 14.9094 14.7367 14.9094C18.245 14.9094 20.3849 16.563 20.3849 19.4945V34.014V34.0015ZM41.8458 27.8379L48.5515 10.0361H43.2019L37.7154 25.8084L31.5943 10.0361H26.1078L34.1945 30.1054H35.7994L35.6128 30.6566C34.9908 32.4105 33.4605 34.6028 30.7608 34.6028H29.0688V39C36.5335 39 37.8895 37.8349 41.8334 27.8379M67.8352 22.4259C67.8352 30.3058 61.341 29.692 61.341 29.692C61.341 29.692 61.2912 29.692 61.2663 29.692C57.4967 29.692 55.7674 26.6478 55.7674 24.2174V19.72C55.7674 17.3272 57.4967 14.283 61.2663 14.283C61.4156 14.283 61.5774 14.283 61.7267 14.283C63.1201 14.2955 67.8352 14.8342 67.8352 21.5615V22.4009V22.4259ZM55.7674 27.6374C55.7674 27.6374 55.7674 27.65 55.7674 27.6625V27.6374ZM72.5629 27.4495C72.9734 26.1466 73.2844 24.5682 73.2844 22.6264V21.3987C73.2844 19.6824 73.0232 18.2542 72.7121 17.0391C71.5302 12.5416 68.3951 9.74797 63.2071 9.87325C61.9133 9.91083 60.5945 10.199 59.5246 10.7001C59.1887 10.8504 58.8901 11.0383 58.6164 11.2388C56.9866 12.4665 56.3397 14.3456 56.1282 15.1223C56.1282 15.1474 56.1157 15.1724 56.1033 15.1975C56.1033 15.2225 56.1033 15.2476 56.0908 15.2601C56.0908 15.2852 56.0908 15.2977 56.0908 15.3102C56.0908 15.3228 56.0908 15.3353 56.0908 15.3478C56.0908 15.3478 56.0908 15.3478 56.0908 15.3604C56.0908 15.3604 56.0908 15.3729 56.0908 15.3854C56.0908 15.3854 56.0908 15.3854 56.0908 15.3979H55.8171V9.97347H50.5297V38.9374H55.8171V28.4893H56.0908C56.0908 28.4893 56.1157 28.6021 56.153 28.7775C56.153 28.7775 56.153 28.8025 56.153 28.815C56.2153 29.0405 56.3023 29.3537 56.4516 29.717C56.8622 30.7568 57.6833 32.2226 59.226 33.087C60.3208 33.6883 61.5898 34.0516 63.3689 34.0516C68.0094 34.0516 71.2441 31.6087 72.5877 27.3618M92.3815 19.0685H80.5251C80.5251 15.0722 83.9838 14.2579 86.4595 14.2579C88.9353 14.2579 92.394 15.0597 92.394 19.0685M97.8431 23.7288C97.8431 23.7288 97.8929 20.6595 97.7436 19.3817C97.2086 14.7214 93.7749 9.78556 86.671 9.78556C79.5672 9.78556 75.275 14.2454 75.275 21.1732C75.275 21.1732 75.2626 22.2881 75.275 22.664C75.5985 29.6168 78.5968 34.0391 86.9696 34.0766C93.75 34.1017 96.4622 30.381 97.246 27.0612C97.2833 26.9108 97.3953 26.4598 97.3953 26.4598L92.3442 25.7207C92.3442 25.7207 92.3193 25.8585 92.3193 25.8961C91.7594 28.5895 89.9182 29.692 86.6462 29.7546C82.2793 29.8298 80.4878 28.1385 80.4878 23.7288H97.8556H97.8431ZM117.289 22.4009C117.289 29.1282 112.561 29.6669 111.18 29.6794C111.031 29.6794 110.881 29.6794 110.72 29.6794C106.95 29.6794 105.221 26.7856 105.221 24.3928V19.745C105.221 17.3147 106.95 14.2704 110.72 14.2704C110.745 14.2704 110.769 14.2704 110.794 14.2704C110.794 14.2704 117.289 13.6566 117.289 21.5365V22.3758V22.4009ZM105.221 16.325C105.221 16.325 105.221 16.3375 105.221 16.35V16.325ZM122.153 26.9484C122.477 25.7332 122.725 24.3051 122.725 22.5888V21.3611C122.725 19.4193 122.414 17.8408 122.004 16.538C120.673 12.3036 117.425 9.8482 112.785 9.8482C111.006 9.8482 109.737 10.2115 108.642 10.8128C107.099 11.6898 106.278 13.143 105.868 14.1828C105.718 14.5461 105.631 14.8718 105.569 15.0847C105.569 15.0847 105.569 15.1098 105.569 15.1223C105.519 15.3102 105.507 15.4105 105.507 15.4105H105.233V5.08769H99.9457V34.0516H105.233V28.6271H105.507C105.507 28.6271 105.98 31.283 108.07 32.8489C108.343 33.0494 108.642 33.2373 108.978 33.3876C110.048 33.8887 111.354 34.1894 112.66 34.2144C117.848 34.3397 120.984 31.5586 122.165 27.0486M142.121 27.6625C142.121 27.6625 142.121 27.65 142.121 27.6374V27.6625ZM142.121 24.3803C142.121 26.8106 140.392 29.7045 136.622 29.7045C136.597 29.7045 136.572 29.7045 136.547 29.7045C136.547 29.7045 130.053 30.3183 130.053 22.4385V21.5991C130.053 14.8718 134.781 14.3331 136.162 14.3206C136.311 14.3206 136.46 14.3206 136.622 14.3206C140.392 14.3206 142.121 17.3648 142.121 19.7576V24.4053V24.3803ZM142.121 34.0766H147.408V10.0361H142.121V15.4606H141.847C141.847 15.4606 141.375 12.8047 139.284 11.2388C139.011 11.0383 138.712 10.8504 138.376 10.7001C137.306 10.199 136 9.89831 134.694 9.87325C129.506 9.74797 126.371 12.5291 125.189 17.0391C124.865 18.2542 124.616 19.6824 124.616 21.3987V22.6264C124.616 24.5682 124.927 26.1466 125.338 27.4495C126.669 31.6839 129.916 34.1393 134.557 34.1393C136.336 34.1393 137.605 33.776 138.7 33.1747C140.242 32.2977 141.063 30.8445 141.474 29.8047C141.623 29.4414 141.71 29.1157 141.773 28.9027C141.773 28.9027 141.773 28.8777 141.773 28.8651C141.822 28.6772 141.835 28.577 141.835 28.577H142.109V34.0892L142.121 34.0766ZM166.518 19.1688H154.662C154.662 15.1724 158.12 14.3581 160.596 14.3581C163.072 14.3581 166.53 15.1599 166.53 19.1688M171.88 19.4819C171.345 14.8217 167.911 9.88578 160.808 9.88578C153.704 9.88578 149.411 14.3456 149.411 21.2734C149.411 21.2734 149.399 22.3884 149.411 22.7642C149.735 29.717 152.733 34.1393 161.106 34.1769C167.886 34.2019 170.599 30.4812 171.382 27.1614C171.42 27.0111 171.532 26.5601 171.532 26.5601L166.481 25.8209C166.481 25.8209 166.456 25.9587 166.456 25.9963C165.896 28.6898 164.055 29.7922 160.783 29.8548C156.416 29.93 154.624 28.2388 154.624 23.829H171.992C171.992 23.829 172.042 20.7598 171.893 19.4819" fill="black"/>
</svg>
