<svg width="116" height="40" viewBox="0 0 116 40" fill="none" xmlns="http://www.w3.org/2000/svg">
<g clip-path="url(#clip0_617_11870)">
<path fill-rule="evenodd" clip-rule="evenodd" d="M0.00976562 27.2279H6.143V21.1234H0.00976562V27.2279Z" fill="black"/>
<path fill-rule="evenodd" clip-rule="evenodd" d="M0.00976562 39.4368H6.143V33.3323H0.00976562V39.4368Z" fill="black"/>
<path fill-rule="evenodd" clip-rule="evenodd" d="M65.2383 21.122H84.9028V25.226H78.1414V39.4357H71.9997V25.226H65.2383V21.122Z" fill="black"/>
<path fill-rule="evenodd" clip-rule="evenodd" d="M56.9289 26.4828C56.7482 25.226 55.7418 24.354 52.9287 24.354C50.8644 24.354 49.7289 24.944 49.7289 26.1494C49.7289 26.7649 50.1675 27.1241 51.0965 27.278C52.645 27.5345 57.3675 28.227 59.1741 28.5348C62.6064 29.1247 64.6707 30.5098 64.6707 33.7417C64.6707 39.9488 56.5675 40.0001 54.0386 40.0001C47.7933 40.0001 43.2772 38.8972 42.916 33.793H50.1935C50.3483 35.1779 51.1223 36.0501 54.3225 36.0501C55.8708 36.0501 57.5482 35.691 57.5482 34.1264C57.5482 33.1518 56.774 32.8182 54.6322 32.4848L48.4901 31.5614C44.6966 30.9971 43.2256 29.0991 43.2256 26.3801C43.2256 23.9692 44.7224 20.5578 52.7998 20.5578C59.4836 20.5578 63.5094 22.1481 63.8966 26.4828H56.9289Z" fill="black"/>
<path fill-rule="evenodd" clip-rule="evenodd" d="M34.2461 39.4357H40.3882V21.122H34.2461V39.4357Z" fill="black"/>
<path fill-rule="evenodd" clip-rule="evenodd" d="M14.5527 21.122H20.6947V35.1779H31.9206V39.4357H14.5527V21.122Z" fill="black"/>
<path fill-rule="evenodd" clip-rule="evenodd" d="M94.4004 6.10352e-05H101.471L110.013 11.4653H110.065V6.10352e-05H116.001V18.3138H109.213L100.387 6.74591H100.336V18.3138H94.4004V6.10352e-05Z" fill="black"/>
<path fill-rule="evenodd" clip-rule="evenodd" d="M81.574 4.61686H81.5226L78.9675 11.5423H84.1289L81.574 4.61686ZM77.832 6.10352e-05H85.3419L93.2643 18.3138H86.6837L85.574 15.3383H77.5226L76.4126 18.3138H69.832L77.832 6.10352e-05Z" fill="black"/>
<path fill-rule="evenodd" clip-rule="evenodd" d="M60.7992 14.3638C62.0896 14.3638 62.967 13.6712 62.967 12.4656C62.967 11.2601 62.0896 10.6446 60.7992 10.6446H54.1927V14.3638H60.7992ZM54.1927 7.05374H60.3088C61.625 7.05374 62.1927 6.33546 62.1927 5.48906C62.1927 4.66831 61.625 3.95003 60.3088 3.95003H54.1927V7.05374ZM48.0508 6.10352e-05H63.3025C67.7669 6.10352e-05 68.5411 2.74463 68.5411 4.51439C68.5411 6.23285 67.5863 7.72057 66.2701 8.20783V8.25914C68.2057 8.69524 69.4701 10.2598 69.4701 12.8504C69.4701 15.0306 68.4379 18.3138 62.7863 18.3138H48.0508V6.10352e-05Z" fill="black"/>
<path fill-rule="evenodd" clip-rule="evenodd" d="M30.2941 8.10522H36.2039C37.7006 8.10522 38.5007 7.33578 38.5007 6.07907C38.5007 4.87339 37.7006 4.10409 36.2039 4.10409H30.2941V8.10522ZM24.1523 6.10352e-05H38.9135C43.4297 6.10352e-05 45.0813 2.052 45.0813 5.10441C45.0813 7.541 43.7909 8.87466 42.1394 9.28511V9.33642C43.3008 9.72121 44.2039 10.6446 44.3587 12.6196C44.6427 16.236 44.7459 17.3903 45.5201 18.3138H38.7846C38.4491 17.5185 38.4233 16.4413 38.4233 15.595C38.4233 12.7222 37.4685 12.2091 35.92 12.2091H30.2941V18.3138H24.1523V6.10352e-05Z" fill="black"/>
<path fill-rule="evenodd" clip-rule="evenodd" d="M0 6.10352e-05H6.14179V10.8496C6.14179 13.8251 7.53539 14.7741 10.3484 14.7741C13.1614 14.7741 14.5549 13.8251 14.5549 10.8496V6.10352e-05H20.6967V11.8501C20.6967 16.903 16.8775 18.878 10.3484 18.878C3.81946 18.878 0 16.903 0 11.8501V6.10352e-05Z" fill="black"/>
</g>
<defs>
<clipPath id="clip0_617_11870">
<rect width="116" height="40" fill="white"/>
</clipPath>
</defs>
</svg>
