<svg width="188" height="40" viewBox="0 0 188 40" fill="none" xmlns="http://www.w3.org/2000/svg">
<g clip-path="url(#clip0_617_11859)">
<path d="M118.701 32.636C118.701 37.2567 114.04 40.0001 108.128 40.0001C103.996 40.0001 98.0352 38.5559 98.0352 34.0313C98.0352 31.2879 100.295 29.9398 102.601 29.7477C100.007 28.4957 98.9974 26.8594 99.0933 24.9333C99.1893 23.0561 100.823 21.2749 103.947 21.3237C101.159 19.9757 99.3339 17.4732 99.3339 14.5849C99.3339 10.4461 103.372 6.97987 108.465 6.93105C111.589 6.93105 115.386 4.5719 115.386 4.5719L118.606 6.97829L110.292 7.07436C114.521 7.69958 117.789 10.8777 117.789 14.5833C117.789 18.9158 113.656 22.3821 108.609 22.3821C107.457 22.3821 106.351 22.1899 105.293 21.9001C104.237 21.6119 102.842 21.6119 102.842 22.2844C102.842 23.4404 107.167 24.2577 111.685 25.557C116.779 27.0011 118.701 29.5524 118.701 32.6329V32.636ZM114.712 36.0535C114.712 33.3573 111.3 32.5872 104.619 30.5178C104.235 30.3729 103.85 30.2769 103.513 30.132C102.696 31.1919 102.504 32.5872 102.553 33.4534C102.697 35.9086 104.427 39.326 108.895 39.3733C112.26 39.4221 114.71 38.1213 114.71 36.0519H114.712V36.0535ZM106.205 14.6337C106.205 19.2071 106.925 21.9505 108.56 21.9505C110.196 21.9505 110.916 19.2071 110.916 14.6337C110.916 10.0603 110.196 7.46178 108.56 7.46178C106.925 7.46178 106.205 10.2052 106.205 14.6337Z" fill="black"/>
<path d="M119.422 19.3032C119.422 11.5045 124.996 6.93268 130.331 6.93268C135.666 6.93268 141.24 11.5061 141.24 19.3032C141.24 27.1004 136.145 31.5777 130.331 31.5777C124.516 31.5777 119.422 27.2941 119.422 19.3032ZM134.271 19.3032C134.271 12.2762 132.589 7.46183 130.331 7.46183C128.073 7.46183 126.391 12.2762 126.391 19.3032C126.391 26.3303 127.977 31.0486 130.331 31.0486C132.685 31.0486 134.271 26.6201 134.271 19.3032Z" fill="black"/>
<path d="M143.162 19.3032C143.162 11.5045 148.736 6.93262 154.071 6.93262C159.406 6.93262 164.98 11.506 164.98 19.3032C164.98 27.1003 159.886 31.5777 154.071 31.5777C148.257 31.5777 143.162 27.2941 143.162 19.3032ZM158.011 19.3032C158.011 12.2761 156.329 7.46177 154.071 7.46177C151.813 7.46177 150.131 12.2761 150.131 19.3032C150.131 26.3302 151.717 31.0485 154.071 31.0485C156.425 31.0485 158.011 26.62 158.011 19.3032Z" fill="black"/>
<path d="M187.28 27.9666C187.28 28.6879 187.521 29.121 188 29.4107V29.5556L180.695 31.5778V28.6422C179.781 30.0864 178.533 31.5778 175.409 31.5778C171.132 31.5778 166.902 26.428 166.902 18.7253C166.902 11.0226 171.228 7.02876 175.409 6.9327C178.244 6.83663 179.926 8.03983 180.695 9.00207V3.89951C180.695 3.1294 180.31 2.64749 179.83 2.40653V2.35929L187.28 0.433228V27.9666ZM180.697 28.1115V9.67611C180.215 9.00207 179.351 8.28078 178.101 8.28078C175.602 8.28078 173.775 11.6022 173.775 18.7269C173.775 25.1287 175.745 28.8832 178.101 29.1714C179.157 29.3163 180.024 28.8343 180.697 28.1131V28.1115Z" fill="black"/>
<path d="M36.9078 7.60667V7.70273C33.3999 9.19571 30.2757 14.9235 27.5854 26.0909L26.3353 31.2895H24.8935C23.7394 26.5728 20.0396 16.3188 17.1088 11.6509C17.6371 14.6841 17.0616 18.1976 14.2738 26.0909L12.4467 31.2895H11.7266C9.80362 23.4435 3.84598 8.57048 0 8.13582V8.08858C1.10536 7.41453 2.8837 6.98145 4.56611 6.98145C10.9577 6.98145 13.9861 15.2117 14.7062 23.2026C15.7157 19.8812 16.6292 16.8007 16.6292 13.9612C16.6292 11.3611 16.005 9.34059 13.3619 8.1374V8.09015C14.4672 7.41611 16.2456 6.98302 17.928 6.98302C24.3196 6.98302 27.0586 15.0211 27.7316 22.9632C28.2127 15.8873 29.3181 6.98302 35.1327 6.98302C35.7569 6.98302 36.4786 7.17515 36.911 7.60824H36.9078V7.60667Z" fill="black"/>
<path d="M55.1701 31.2879V31.2391C55.6025 30.9509 55.939 30.5651 55.939 29.9398V3.94667C55.8903 3.17656 55.5538 2.69466 55.0742 2.45528V2.40646L62.5712 6.10352e-05V29.8926C62.5712 30.5178 62.9077 30.9509 63.3401 31.2407V31.2895H55.1701V31.2879Z" fill="black"/>
<path d="M66.3225 31.2879V31.2391C66.7549 30.9509 67.0914 30.5651 67.0914 29.9398V3.94667C67.0426 3.17656 66.7061 2.69466 66.2266 2.45528V2.40646L73.7235 6.10352e-05V29.8926C73.7235 30.5178 74.06 30.9509 74.4924 31.2407V31.2895H66.3225V31.2879Z" fill="black"/>
<path d="M53.0997 23.3457C52.0431 24.6938 49.6877 25.7521 47.477 25.7521C43.6797 25.7521 40.1718 22.2858 40.1718 15.4036C40.1718 15.0761 40.175 14.7516 40.1828 14.4319L51.9377 14.4272H52.4676C52.5179 14.3233 52.5572 14.1989 52.5808 14.065C52.606 13.9406 52.6138 13.8256 52.6107 13.7185H52.617C52.617 9.24275 49.6861 6.93085 44.8323 6.93085C39.7378 6.93085 34.2598 11.3594 34.2598 19.0605C34.2598 26.7616 38.5853 31.5759 44.7364 31.5759C49.543 31.5759 52.0887 28.4955 53.1469 23.3929L53.0981 23.3457H53.0997ZM44.3055 7.41276C45.9392 7.41276 46.7568 8.90573 46.7568 10.5893C46.7568 12.6114 45.2678 13.2366 43.392 13.2366H40.2677C40.6514 9.67426 42.0461 7.41276 44.304 7.41276H44.3055Z" fill="black"/>
<path d="M87.8489 13.4259V7.54218H85.1334V13.4259H77.7402V17.9237C77.7402 18.6387 78.3189 19.2198 79.0343 19.2198H85.1334V23.7428C85.1334 24.494 85.7419 25.1019 86.4904 25.1019C87.2404 25.1019 87.8473 24.4925 87.8473 23.7428V19.2198H93.9465C94.6603 19.2198 95.2405 18.6403 95.2405 17.9237V13.4259H87.8473H87.8489Z" fill="black"/>
</g>
<defs>
<clipPath id="clip0_617_11859">
<rect width="188" height="40" fill="white"/>
</clipPath>
</defs>
</svg>
