<svg width="153" height="40" viewBox="0 0 153 40" fill="none" xmlns="http://www.w3.org/2000/svg">
<path d="M66.3734 27.2816H66.5771V19.771C66.4243 15.8247 63.2419 12.6677 59.2956 12.5404H54.1019C50.1556 12.6677 46.9986 15.8247 46.8713 19.771V30.7186C46.8713 32.679 47.686 34.5376 49.1118 35.8615C50.4611 37.1854 52.2433 37.9237 54.1273 37.9492H59.3211C63.2928 37.8474 66.4753 34.6904 66.6026 30.7186H62.2744C62.1726 32.2971 60.8996 33.5701 59.3211 33.6211H54.1273C52.5488 33.5447 51.2758 32.2971 51.174 30.7186V27.2816H66.3734ZM54.1019 16.8686H59.2956C60.8487 16.9959 62.0962 18.2179 62.2744 19.771V23.1062H51.174V19.771C51.3267 18.2179 52.5488 16.9959 54.1019 16.8686ZM152.529 27.3325H152.758V19.8219C152.58 15.8756 149.397 12.7186 145.426 12.5913H140.232C136.286 12.7441 133.129 15.8756 132.976 19.8219V30.7696C133.001 32.73 133.816 34.5885 135.242 35.9124C136.591 37.2109 138.373 37.9747 140.232 38.0001H145.426C149.397 37.8983 152.58 34.7413 152.707 30.7696H148.379C148.277 32.3481 147.004 33.5956 145.426 33.672H140.232C138.653 33.5956 137.381 32.3481 137.304 30.7696V27.3325H152.529ZM140.257 16.9195H145.426C146.979 17.0723 148.226 18.2689 148.379 19.8219V23.1571H137.33V19.8219C137.482 18.2689 138.704 17.0468 140.257 16.9195ZM20.8769 37.9492H10.3621C6.77228 37.9492 4.02263 36.7781 2.24045 34.4358C0.712871 32.5008 0 29.853 0 26.5433V2.00012H4.30269V26.5433C4.30269 28.911 4.76096 30.7187 5.65205 31.8898C6.54314 33.0609 8.12164 33.7229 10.3366 33.7229H20.8515L20.8769 37.9492ZM29.3041 12.5404H24.976V37.9492H29.3041V12.5404ZM27.1655 9.35797C28.6167 9.35797 29.7878 8.18682 29.7878 6.73562C29.7878 5.28442 28.6167 4.11328 27.1655 4.11328C25.7143 4.11328 24.5431 5.28442 24.5431 6.73562C24.5177 8.18682 25.7143 9.35797 27.1655 9.35797ZM105.123 12.5404H100.744V37.9492H105.123V12.5404ZM102.934 9.35797C104.385 9.35797 105.556 8.18682 105.556 6.73562C105.556 5.28442 104.385 4.11328 102.934 4.11328C101.482 4.11328 100.311 5.28442 100.311 6.73562C100.311 8.18682 101.482 9.35797 102.934 9.35797ZM39.0806 8.92516C40.1754 7.16844 42.034 6.25189 44.8091 6.25189H47.5587V2.02558H44.6818C41.703 2.02558 37.6804 2.84029 35.2871 6.65925C33.9887 8.8997 33.3777 11.4711 33.454 14.0426V37.9492H37.8331V24.2264C37.8331 20.3566 39.5898 17.3523 43.5615 17.3269H44.2999C44.7581 15.5701 45.7256 13.9916 47.0241 12.7441H45.2673C42.5941 12.6677 39.9717 13.4315 37.7822 14.9336V14.068C37.7822 12.2604 38.215 10.5037 39.0806 8.92516ZM97.5361 12.5404H93.3862L93.3098 12.8714V12.9478L89.0071 31.2024L85.7228 20.4075C85.4682 19.5418 85.0608 17.7851 84.1443 17.7851H82.0057C81.14 17.7851 80.7327 19.5418 80.4526 20.4075L77.0919 31.3042L72.7893 12.9732V12.8714L72.7129 12.515H68.6393L68.9703 13.8643L74.3423 35.3014C74.5714 36.3707 75.2079 37.9237 75.9717 37.9237H78.2631C79.1287 37.9237 79.7143 36.3198 80.0198 35.3014L83.1004 25.2194L86.1556 35.3014C86.4357 36.167 87.0212 37.9237 87.8359 37.9237H90.1019C90.9675 37.9237 91.604 36.167 91.8586 35.3014L97.256 13.8643L97.5361 12.5404ZM129.182 35.6833L124.498 26.9252C127.324 25.9322 129.284 23.3353 129.412 20.3311V19.6182C129.335 15.6211 126.025 12.4386 122.028 12.515H109.706V37.9492H113.856V30.8714C113.856 29.5984 115.485 27.4598 117.98 27.4598H120.221L125.211 37.2872L125.516 37.9237H130.226L129.182 35.6833ZM122.156 23.4117H118.031C116.478 23.4117 114.976 23.9464 113.805 24.9648V16.7158H122.156C123.785 16.6904 125.109 17.9633 125.185 19.5928V20.3056C125.083 21.8841 123.734 23.4626 122.156 23.3863V23.4117Z" fill="black"/>
</svg>
