<svg width="208" height="40" viewBox="0 0 208 40" fill="none" xmlns="http://www.w3.org/2000/svg">
<path d="M29.8852 12.1723C28.7806 12.1723 27.8052 12.4708 26.9837 12.9969C26.0483 9.75694 23.2206 7.9231 18.9314 7.9231H12.1529V10.2831H19.1191C22.676 10.2831 24.7744 12.2123 24.7744 15.5816C24.7744 18.9508 22.676 20.88 19.1191 20.88H19.0637L19.4575 20.2985C20.3191 19.0062 21.1067 17.7323 21.1067 16.5354C21.1067 14.0646 19.5344 12.1908 16.4637 12.1908C13.8052 12.1908 11.7991 14.2308 11.7991 16.6308H14.3283C14.3283 15.4308 15.116 14.5508 16.4637 14.5508C17.9067 14.5508 18.5806 15.3939 18.5806 16.6123C18.5806 17.5477 17.9806 18.4862 17.3252 19.44L16.3129 20.9016H12.156V23.2616H14.7037L10.2637 29.76H20.9006V27.3816H14.6267L17.4544 23.2431H18.9344C19.1775 23.2431 19.4206 23.2431 19.6637 23.2246L27.0975 32.9262H30.3006L27.8483 29.7416L32.5129 22.9231C33.7129 21.2369 35.116 19.4031 35.116 17.2862C35.0914 14.4954 32.956 12.1723 29.8852 12.1723ZM26.2698 27.7169L22.4298 22.7539C23.8329 22.3046 24.9775 21.5539 25.8021 20.5262C26.7191 21.6862 28.1621 22.4185 29.9037 22.4185H30.036L26.2698 27.7169ZM29.8852 20.0769C28.276 20.0769 27.2267 18.8585 27.2267 17.3046C27.2267 17.1723 27.2267 17.0616 27.2452 16.9292V16.8554C27.4329 15.5262 28.4237 14.5323 29.8667 14.5323C31.476 14.5323 32.5252 15.7508 32.5252 17.3046C32.5437 18.8585 31.4944 20.0769 29.8852 20.0769Z" fill="black"/>
<path d="M21.9077 0C10.9323 0 2 8.93231 2 19.9077C2 30.8831 10.9323 39.8154 21.9077 39.8154C32.8831 39.8154 41.8154 30.8831 41.8154 19.8892C41.8154 8.91385 32.8831 0 21.9077 0ZM21.9077 37.4554C12.2246 37.4554 4.36 29.5908 4.36 19.9077C4.36 10.2246 12.2246 2.36 21.9077 2.36C31.5908 2.36 39.4554 10.2246 39.4554 19.9077C39.4497 24.5599 37.5991 29.0199 34.3095 32.3095C31.0199 35.5991 26.5599 37.4497 21.9077 37.4554ZM65.6092 19.7877C66.5692 18.8862 67.1815 17.6031 67.1815 16.1754C67.1815 14.7477 66.5692 13.4677 65.6092 12.5631C64.7354 11.7477 63.5692 11.2523 61.7631 11.2523H55.3261V28.9046H58.7354V21.0985H59.96L66.2523 28.9046H70.4461L63.8338 20.8062C64.4947 20.6046 65.1016 20.2565 65.6092 19.7877ZM63.2769 17.5477C62.9846 17.8677 62.5477 18.0708 61.5569 18.0708H58.7323V14.2831H61.5569C62.5477 14.2831 62.9846 14.5169 63.2769 14.8369C63.5946 15.2171 63.7686 15.6968 63.7686 16.1923C63.7686 16.6878 63.5946 17.1675 63.2769 17.5477ZM76.1815 20.9538H81.6V17.9262H76.1815V14.2831H83.3477V11.2554H72.7723V28.9046H83.6092V25.8769H76.1815V20.9538ZM88.0646 28.9046H91.4738V20.9538H96.8892V17.9262H91.4738V14.2831H98.6369V11.2554H88.0646V28.9046ZM102.221 11.2554H105.631V28.9077H102.221V11.2554ZM122.726 22.76L112.88 11.2554H110.492V28.9046H113.901V17.4L123.745 28.9046H126.135V11.2554H122.726V22.76ZM134.726 20.9538H140.145V17.9262H134.726V14.2831H141.892V11.2554H131.32V28.9046H142.154V25.8769H134.726V20.9538ZM156.892 19.7877C157.852 18.8862 158.465 17.6031 158.465 16.1754C158.465 14.7477 157.852 13.4677 156.892 12.5631C156.018 11.7477 154.852 11.2523 153.046 11.2523H146.609V28.9046H150.018V21.0985H151.243L157.505 28.9046H161.729L155.117 20.8062C155.775 20.5982 156.38 20.2508 156.892 19.7877ZM154.532 17.5477C154.24 17.8677 153.803 18.0708 152.812 18.0708H149.988V14.2831H152.812C153.803 14.2831 154.24 14.5169 154.532 14.8369C154.854 15.2203 155.03 15.7055 155.028 16.2062C155.037 16.4513 154.998 16.696 154.913 16.9262C154.828 17.1564 154.699 17.3676 154.532 17.5477ZM168.806 17.4585L164.901 11.2554H161.028L167.086 20.9262V28.9046H170.495V20.9262L176.523 11.2554H172.649L168.806 17.4585ZM188.203 21.3631C189.428 19.76 190.126 18.3908 190.126 16.2062C190.126 12.9723 187.388 10.6431 184.36 10.6431H184.243C181.215 10.6431 178.68 12.8862 178.477 16.1477H181.886C181.905 15.5122 182.165 14.9077 182.615 14.4581C183.065 14.0086 183.669 13.7478 184.305 13.7292C184.942 13.7426 185.549 14.0017 186 14.4524C186.451 14.903 186.71 15.5105 186.723 16.1477C186.723 17.08 186.606 18.04 185.326 19.6708L177.754 28.9046H190.772V25.8185H184.511L188.203 21.3631ZM199.594 10.6431C197.926 10.6537 196.331 11.3248 195.157 12.5094C193.984 13.694 193.327 15.2955 193.332 16.9631C193.32 17.7788 193.471 18.5887 193.777 19.345C194.082 20.1014 194.536 20.7889 195.112 21.367C195.687 21.9452 196.373 22.4022 197.128 22.7112C197.883 23.0202 198.692 23.1749 199.508 23.1662H199.741L196.391 28.9046H200.148L204.314 21.7692C205.246 20.1662 206.061 18.5938 206.061 16.8185C206.058 13.0308 202.883 10.6431 199.594 10.6431ZM199.68 20.1108C198.838 20.1083 198.032 19.773 197.437 19.178C196.842 18.5831 196.507 17.7768 196.505 16.9354C196.505 15.1877 197.932 13.76 199.68 13.76C201.428 13.76 202.855 15.1877 202.855 16.9354C202.855 18.6831 201.428 20.1108 199.68 20.1108Z" fill="black"/>
</svg>
