<svg width="124" height="40" viewBox="0 0 124 40" fill="none" xmlns="http://www.w3.org/2000/svg">
<path d="M120.363 29.4576C114.542 35.7953 107.047 33.0671 106.668 23.9834H120.63C121.12 20.0223 119.517 12.0112 111.506 12.0112C104.875 12.0112 100.736 17.3964 100.736 23.8053C100.736 30.7038 105.453 36.0001 111.684 36.0001C115.2 36.0001 119.206 33.5077 120.986 30.2142L120.363 29.4576ZM110.972 14.192C113.242 14.192 114.622 17.0404 114.8 22.0251H106.691C106.962 17.4899 108.698 14.192 110.972 14.192ZM20.669 19.3547V19.2657C24.185 18.2866 26.9889 15.6162 26.9889 11.8332C26.9889 7.56056 23.4284 4.40062 16.7524 4.40062H3.04451V5.82482C5.75939 6.04735 6.07093 6.18087 6.07093 7.69408V32.3505C6.07093 33.8193 5.75939 33.9528 3 34.1308V35.555H18.0431C24.7191 35.555 28.3241 32.2615 28.3241 27.5439C28.3241 23.9389 26.2323 20.5564 20.669 19.3547ZM12.5243 6.26988H15.5953C19.1113 6.26988 20.4465 8.89575 20.4465 12.2337C20.4465 15.9277 18.7997 18.3756 15.2392 18.3756L12.5243 18.3311V6.26988ZM21.4701 27.5439C21.4701 30.7038 20.4465 33.7302 16.0848 33.7302H12.5243V20.4674H15.3727C19.6453 20.4674 21.5146 23.2268 21.4701 27.5439ZM60.9916 16.5063C60.9916 14.3255 62.9944 13.1238 64.9082 13.1238C67.178 13.1238 69.5368 14.7706 70.0709 18.1976H71.5396L71.1391 12.4117C69.2253 11.5661 66.4214 11.0321 64.0181 11.0321C58.4548 11.0321 55.5619 13.7914 55.5619 17.3964C55.5619 25.6746 67.178 25.8081 67.178 30.7038C67.178 32.8846 65.1752 33.9528 63.0834 33.9528C60.6356 33.9528 57.6537 32.4841 56.719 27.2768H55.3394L55.8734 34.4423C57.6982 35.3325 60.6801 36.0001 63.5285 36.0001C69.2253 36.0001 72.7858 33.3742 72.7858 29.1906C72.7858 21.58 60.9916 21.4465 60.9916 16.5063ZM51.6898 30.6148V11.6551H50.9777L42.0765 13.6134V14.9041C45.1919 15.1266 45.5035 15.2601 45.5035 16.9514V29.7247C44.3908 30.7483 42.121 31.95 40.1182 31.95C38.0709 31.95 37.6259 30.7038 37.6259 28.701V11.6551H36.9138L28.9026 13.6134V14.8596C31.128 15.0821 31.4395 15.2156 31.4395 16.9514V29.3686C31.4395 34.2198 34.1989 36.0001 37.2698 36.0001C40.8303 36.0001 43.8567 33.5967 45.5035 31.3714H45.726V35.911H46.4826L53.8706 34.0418L53.6926 32.8401C52.491 32.9736 51.6898 32.128 51.6898 30.6148ZM84.8915 33.1072C83.2893 33.1072 82.4882 31.8165 82.4882 29.2351V14.6816H87.8734V12.4117H82.4882V5.6913H80.8859C80.3074 8.27266 78.2601 12.1002 73.2754 13.0348V14.7261H76.3018V30.7038C76.3018 34.4423 78.2601 36.0001 81.9541 36.0001C84.5355 36.0001 86.3157 35.2435 88.185 32.5286L87.2503 31.5494C86.4047 32.5731 85.7816 33.1072 84.8915 33.1072ZM97.5758 32.4396V4.00006H96.8637L87.9624 5.95834V7.24902C91.0779 7.47155 91.3894 7.60507 91.3894 9.29631V32.4396C91.3894 33.9083 91.0779 34.0418 89.2086 34.2643V35.555H99.7121V34.2643C97.8873 34.0418 97.5758 33.9083 97.5758 32.4396Z" fill="black"/>
</svg>
