<svg width="32" height="32" viewBox="0 0 32 32" fill="none" xmlns="http://www.w3.org/2000/svg">
<path d="M7.64863 19.1294L6.60438 23.0277L2.78764 23.1085C1.64699 20.9928 1 18.5722 1 16C1 13.5126 1.60492 11.167 2.67719 9.10162H2.67801L6.07598 9.72459L7.56449 13.1022C7.25295 14.0104 7.08314 14.9854 7.08314 16C7.08326 17.1011 7.28271 18.1561 7.64863 19.1294Z" fill="#FBBB00"/>
<path d="M30.7363 13.1978C30.9085 14.1052 30.9984 15.0423 30.9984 16C30.9984 17.0739 30.8855 18.1214 30.6704 19.1319C29.9402 22.5704 28.0322 25.5728 25.3891 27.6975L25.3882 27.6967L21.1083 27.4783L20.5026 23.697C22.2564 22.6684 23.627 21.0588 24.349 19.1319H16.3281V13.1978H24.466H30.7363Z" fill="#518EF8"/>
<path d="M25.3893 27.6967L25.3901 27.6976C22.8196 29.7638 19.5541 31 15.9995 31C10.2871 31 5.32064 27.8072 2.78711 23.1086L7.64811 19.1295C8.91484 22.5102 12.1761 24.9168 15.9995 24.9168C17.6429 24.9168 19.1825 24.4726 20.5036 23.697L25.3893 27.6967Z" fill="#28B446"/>
<path d="M25.573 4.45328L20.7137 8.43156C19.3464 7.57691 17.7302 7.0832 15.9986 7.0832C12.0887 7.0832 8.76643 9.60021 7.56315 13.1022L2.6766 9.10164H2.67578C5.17223 4.28846 10.2013 1 15.9986 1C19.6381 1 22.9752 2.29645 25.573 4.45328Z" fill="#F14336"/>
</svg>
