<svg width="142" height="48" viewBox="0 0 142 48" fill="none" xmlns="http://www.w3.org/2000/svg">
<path d="M131.544 6.46401V10.144H138.744V14.912H131.544V18.976H139.704V24H125.272V1.44001H139.704V6.46401H131.544Z" fill="#101117"/>
<path d="M123.317 1.44001L115.541 24H107.509L99.7014 1.44001H106.421L111.541 17.728L116.629 1.44001H123.317Z" fill="#101117"/>
<path d="M66.7302 19.2H73.7382V24H60.4582V1.44001H66.7302V19.2Z" fill="#101117"/>
<path fill-rule="evenodd" clip-rule="evenodd" d="M91.973 2.22934C90.3922 1.46845 88.6626 1.088 86.7841 1.088C84.6721 1.088 82.7308 1.57867 80.9601 2.56C79.1894 3.54134 77.7814 4.91734 76.7361 6.68801C75.7121 8.43734 75.2001 10.4213 75.2001 12.64C75.2001 14.8587 75.7121 16.8533 76.7361 18.624C77.2992 19.5664 77.9676 20.4005 78.7413 21.1262L82.3512 15.9707C81.8504 15.0584 81.6001 13.9482 81.6001 12.64C81.6001 10.848 82.0587 9.44001 82.9761 8.41601C83.8934 7.37067 85.1628 6.84801 86.7841 6.84801C87.4317 6.84801 88.0233 6.93363 88.5591 7.10487L91.973 2.22934ZM85.6042 18.2986C85.9743 18.3662 86.3676 18.4 86.7841 18.4C88.3841 18.4 89.6428 17.8773 90.5601 16.832C91.4988 15.7867 91.9681 14.3893 91.9681 12.64C91.9681 11.5942 91.8082 10.6792 91.4886 9.89496L95.2192 4.56698C95.8195 5.19652 96.3464 5.90353 96.8001 6.68801C97.8241 8.43734 98.3361 10.4213 98.3361 12.64C98.3361 14.8587 97.8241 16.8533 96.8001 18.624C95.7761 20.3733 94.3788 21.7493 92.6081 22.752C90.8374 23.7333 88.8961 24.224 86.7841 24.224C85.1157 24.224 83.5538 23.9178 82.0984 23.3054L85.6042 18.2986Z" fill="#101117"/>
<path d="M135.467 46.6667L129.869 38.8387V46.6667H124.903V28.8067H129.869V36.508L135.417 28.8067H141.142L134.581 37.4707L141.471 46.6667H135.467Z" fill="#101117"/>
<path d="M117.079 43.7533H110.746L109.783 46.6667H104.564L111.075 28.8067H116.8L123.286 46.6667H118.042L117.079 43.7533ZM115.838 39.9533L113.912 34.1773L112.012 39.9533H115.838Z" fill="#101117"/>
<path d="M96.8654 32.784V35.6973H102.565V39.472H96.8654V42.6893H103.325V46.6667H91.9V28.8067H103.325V32.784H96.8654Z" fill="#101117"/>
<path d="M89.9063 34.76C89.9063 35.8409 89.6529 36.8289 89.1463 37.724C88.6565 38.6022 87.9049 39.3116 86.8916 39.852C85.8952 40.3756 84.6707 40.6373 83.2183 40.6373H80.7609V46.6667H75.7956V28.8067H83.2183C84.6538 28.8067 85.8698 29.06 86.8663 29.5667C87.8796 30.0733 88.6396 30.7742 89.1463 31.6693C89.6529 32.5645 89.9063 33.5947 89.9063 34.76ZM82.7369 36.6853C84.1387 36.6853 84.8396 36.0436 84.8396 34.76C84.8396 33.4596 84.1387 32.8093 82.7369 32.8093H80.7609V36.6853H82.7369Z" fill="#101117"/>
<path d="M66.8244 46.844C64.7471 46.844 63.0413 46.3542 61.7071 45.3747C60.3729 44.3782 59.6551 42.9596 59.5537 41.1187H64.8484C64.8991 41.7436 65.0849 42.1996 65.4057 42.4867C65.7266 42.7738 66.1404 42.9173 66.6471 42.9173C67.1031 42.9173 67.4746 42.8076 67.7617 42.588C68.0657 42.3516 68.2177 42.0307 68.2177 41.6253C68.2177 41.1018 67.9729 40.6965 67.4831 40.4093C66.9933 40.1222 66.1995 39.8013 65.1017 39.4467C63.9364 39.0582 62.9906 38.6867 62.2644 38.332C61.5551 37.9605 60.9302 37.4285 60.3897 36.736C59.8662 36.0267 59.6044 35.1062 59.6044 33.9747C59.6044 32.8262 59.8915 31.8467 60.4657 31.036C61.04 30.2085 61.8337 29.5836 62.8471 29.1613C63.8604 28.7391 65.0089 28.528 66.2924 28.528C68.3697 28.528 70.0249 29.0178 71.2577 29.9973C72.5075 30.96 73.1746 32.3196 73.2591 34.076H67.8631C67.8462 33.5356 67.6773 33.1302 67.3564 32.86C67.0524 32.5898 66.6555 32.4547 66.1657 32.4547C65.7942 32.4547 65.4902 32.5645 65.2537 32.784C65.0173 33.0036 64.8991 33.316 64.8991 33.7213C64.8991 34.0591 65.0257 34.3547 65.2791 34.608C65.5493 34.8445 65.8786 35.0556 66.2671 35.2413C66.6555 35.4102 67.2297 35.6298 67.9897 35.9C69.1213 36.2885 70.0502 36.6769 70.7764 37.0653C71.5195 37.4369 72.1529 37.9689 72.6764 38.6613C73.2169 39.3369 73.4871 40.1982 73.4871 41.2453C73.4871 42.3094 73.2169 43.2636 72.6764 44.108C72.1529 44.9525 71.3844 45.6196 70.3711 46.1094C69.3746 46.5991 68.1924 46.844 66.8244 46.844Z" fill="#101117"/>
<path fill-rule="evenodd" clip-rule="evenodd" d="M24 47.9954C37.2549 47.9954 48 37.2513 48 23.9977C48 10.7441 37.2549 0 24 0C10.7452 0 0 10.7441 0 23.9977C0 30.334 2.45597 36.0968 6.46798 40.3862L5.93581 48L13.111 45.389C16.3791 47.0556 20.0798 47.9954 24 47.9954Z" fill="#2660F5"/>
<path d="M37.3327 21.6497C37.3327 31.5667 23.9993 36.6667 23.9993 36.6667C23.9993 36.6667 10.666 31.5667 10.666 21.6497C10.666 17.4227 13.8876 14 17.866 14C20.4577 14 22.7295 15.4565 23.9993 17.6377C25.2692 15.4565 27.5409 14 30.1327 14C34.1111 14 37.3327 17.4227 37.3327 21.6497Z" fill="white"/>
</svg>
