<svg width="40" height="40" viewBox="0 0 40 40" fill="none" xmlns="http://www.w3.org/2000/svg">
<rect width="40" height="40" rx="10" fill="#2660F5"/>
<path d="M16.4574 13.3653C16.3874 13.4354 16.32 13.5072 16.255 13.5803C16.19 13.5072 16.1226 13.4354 16.0526 13.3653C14.096 11.4088 10.9239 11.4088 8.9674 13.3653C7.01087 15.3218 7.01087 18.4939 8.9674 20.4505L16.255 27.7381L23.5426 20.4505C25.4991 18.4939 25.4991 15.3218 23.5426 13.3653C21.5861 11.4088 18.414 11.4088 16.4574 13.3653Z" stroke="white" stroke-width="2" stroke-miterlimit="10"/>
<path d="M20 23.9931L23.745 27.7381L31.0326 20.4505C32.9892 18.4939 32.9892 15.3218 31.0326 13.3653C29.0761 11.4088 25.904 11.4088 23.9475 13.3653C23.8774 13.4354 23.8101 13.5072 23.745 13.5803" stroke="white" stroke-width="2" stroke-miterlimit="10"/>
</svg>
