<svg width="40" height="40" viewBox="0 0 40 40" fill="none" xmlns="http://www.w3.org/2000/svg">
<rect width="40" height="40" rx="10" fill="#2660F5"/>
<path d="M20 9C13.9249 9 9 13.9249 9 20C9 22.1387 9.61101 24.1344 10.6671 25.8233L9 31L14.1767 29.3329C15.8656 30.389 17.8613 31 20 31C26.0751 31 31 26.0751 31 20C31 13.9249 26.0751 9 20 9Z" stroke="white" stroke-width="2" stroke-miterlimit="10" stroke-linecap="round" stroke-linejoin="round"/>
<path d="M21.1645 20C21.1645 20.6435 20.6428 21.1653 19.9992 21.1653C19.3557 21.1653 18.834 20.6435 18.834 20C18.834 19.3565 19.3557 18.8347 19.9992 18.8347C20.6428 18.8347 21.1645 19.3565 21.1645 20Z" fill="white"/>
<path d="M25.8266 20C25.8266 20.6435 25.3049 21.1653 24.6613 21.1653C24.0178 21.1653 23.4961 20.6435 23.4961 20C23.4961 19.3565 24.0178 18.8347 24.6613 18.8347C25.3049 18.8347 25.8266 19.3565 25.8266 20Z" fill="white"/>
<path d="M16.5024 20C16.5024 20.6435 15.9807 21.1653 15.3371 21.1653C14.6936 21.1653 14.1719 20.6435 14.1719 20C14.1719 19.3565 14.6936 18.8347 15.3371 18.8347C15.9807 18.8347 16.5024 19.3565 16.5024 20Z" fill="white"/>
</svg>
