<svg width="40" height="40" viewBox="0 0 40 40" fill="none" xmlns="http://www.w3.org/2000/svg">
<rect width="40" height="40" rx="10" fill="#2660F5"/>
<path d="M27.0508 20C30.6407 20 33 22.9102 33 26.5C33 30.0898 30.6407 33 27.0508 33C22.1758 33 20 26.5 20 26.5C20 26.5 17.714 20 12.9492 20C9.35933 20 7 22.9102 7 26.5C7 30.0898 9.35933 33 12.9492 33" stroke="white" stroke-width="2" stroke-miterlimit="10" stroke-linecap="round"/>
<path d="M27.0508 33C30.6407 33 33 30.0898 33 26.5C33 22.9102 30.6407 20 27.0508 20C24.7402 20 23.0359 21.4603 21.8823 22.9966M12.9492 20C9.35933 20 7 22.9102 7 26.5C7 30.0898 9.35933 33 12.9492 33C15.186 33 16.8766 31.5675 18.0408 30.0475" stroke="white" stroke-width="2" stroke-miterlimit="10" stroke-linecap="round"/>
<path d="M20.0004 9.64752C20.0004 8.90079 20.7859 6.99999 23.4157 6.99999C25.3019 6.99999 26.8309 8.37275 26.8309 10.6035C26.8309 13.6295 22.0142 16.8546 20.4704 17.7468C20.3247 17.831 20.0004 18.0169 20.0004 18.0169C20.0004 18.0169 19.676 17.831 19.5303 17.7468C17.9865 16.8546 13.1699 13.6295 13.1699 10.6035C13.1699 8.37275 14.699 6.99999 16.5852 6.99999C19.2149 6.99999 20.0004 8.90079 20.0004 9.64752Z" stroke="white" stroke-width="2" stroke-miterlimit="10" stroke-linejoin="round"/>
</svg>
